<svg width="130" height="74" viewBox="0 0 130 74" fill="none" xmlns="http://www.w3.org/2000/svg">
<path d="M74.6323 69.0535H75.6042C75.8645 69.0361 76.1248 69.1057 76.3504 69.2622C76.524 69.4186 76.6281 69.6447 76.6108 69.8707C76.6281 70.0967 76.5413 70.3402 76.3852 70.514C76.2116 70.6879 75.986 70.7922 75.743 70.827V70.8444C76.1248 70.9139 76.4025 71.2617 76.3852 71.6616C76.4025 71.9746 76.2637 72.2875 76.0207 72.4962C75.743 72.7048 75.3785 72.8265 75.0314 72.7918H73.8687L74.6323 69.0535ZM74.4934 70.9487L74.1463 72.5657H75.0141C75.2918 72.5831 75.5695 72.4962 75.7951 72.3397C75.986 72.1832 76.0901 71.9398 76.0728 71.679C76.0901 71.4703 76.0033 71.2617 75.8471 71.1226C75.6389 70.9835 75.3959 70.9313 75.1529 70.9487H74.4934ZM74.5455 70.7227H75.2571C75.5347 70.7401 75.8124 70.6705 76.0554 70.514C76.2463 70.3749 76.3504 70.1489 76.3331 69.9055C76.3504 69.7316 76.2637 69.5577 76.1422 69.436C75.9686 69.3143 75.7604 69.2622 75.5521 69.2795H74.8579L74.5455 70.7227Z" fill="#2B2B2B"/>
<path d="M76.9578 70.0098H77.2182L77.4264 71.4182C77.5132 72.0094 77.5653 72.3919 77.5653 72.5657H77.6C77.6694 72.3919 77.8256 72.0789 78.0686 71.6268L78.9537 70.0098H79.214L77.3917 73.3134C77.305 73.4699 77.2008 73.6264 77.0793 73.7655C76.9926 73.8524 76.8884 73.9219 76.7843 73.9741C76.6628 74.0263 76.5413 74.061 76.4198 74.0437C76.3157 74.0437 76.1942 74.0263 76.0901 73.9915V73.7481C76.1942 73.8002 76.3157 73.8176 76.4372 73.8176C76.576 73.8176 76.6975 73.7655 76.819 73.6959C76.9578 73.5742 77.062 73.4351 77.1488 73.2786C77.2529 73.0874 77.3397 72.9309 77.4091 72.8092L76.9578 70.0098Z" fill="#2B2B2B"/>
<path d="M82.4595 71.7659H81.2273L80.6893 72.8091H80.0471L82.043 69.0709H82.7372L83.1537 72.8091H82.5636L82.4595 71.7659ZM82.4248 71.2269C82.3554 70.514 82.3206 70.0967 82.3033 69.9403C82.2859 69.7838 82.2859 69.6794 82.2859 69.5925C82.1992 69.8185 82.0777 70.0794 81.9215 70.3749L81.4876 71.2269H82.4248Z" fill="#2B2B2B"/>
<path d="M84.1601 72.7918H83.5701L84.4205 68.8101H85.0279L84.1601 72.7918Z" fill="#2B2B2B"/>
<path d="M86.1733 69.975L85.8436 71.5399C85.8089 71.6964 85.7742 71.8702 85.7568 72.0267C85.7568 72.2528 85.8609 72.3745 86.0865 72.3745C86.2254 72.3745 86.3469 72.3223 86.451 72.2354C86.5898 72.1137 86.694 71.9746 86.7807 71.8007C86.8849 71.592 86.9543 71.3834 86.989 71.1748L87.2493 69.975H87.8394L87.2493 72.8092H86.7807L86.8328 72.2875H86.8155C86.694 72.4614 86.5551 72.6179 86.3816 72.7222C86.2427 72.8092 86.0692 72.8613 85.8956 72.8613C85.7047 72.8787 85.5138 72.8092 85.375 72.6701C85.2361 72.5136 85.1841 72.3223 85.1841 72.1137C85.1841 72.0093 85.2014 71.905 85.2188 71.8007C85.2361 71.6964 85.2535 71.5921 85.2709 71.4877L85.5832 69.9924L86.1733 69.975Z" fill="#2B2B2B"/>
<path d="M90.009 69.9229C90.0957 69.9229 90.1999 69.9403 90.2866 69.9577L90.1478 70.514C90.061 70.4967 89.9742 70.4793 89.8875 70.4793C89.6618 70.4793 89.4536 70.5836 89.3147 70.7749C89.1412 71.0009 89.0197 71.2617 88.9676 71.5399L88.69 72.8265H88.0825L88.69 69.9924H89.1585L89.1065 70.514H89.1238C89.228 70.3402 89.3842 70.1837 89.5404 70.0794C89.6966 69.9577 89.8528 69.9229 90.009 69.9229Z" fill="#2B2B2B"/>
<path d="M91.1195 72.8439C90.8939 72.8613 90.6856 72.757 90.5468 72.5831C90.3906 72.3745 90.3212 72.1137 90.3385 71.8529C90.3385 71.5225 90.3906 71.1921 90.5121 70.8792C90.6162 70.601 90.7898 70.3576 90.998 70.1663C91.189 69.9924 91.4319 69.9055 91.6923 69.9055C91.8484 69.9055 91.9873 69.9403 92.1261 70.0272C92.2476 70.1141 92.3517 70.2358 92.4038 70.3749H92.4385L92.5947 69.975H93.0633L92.4559 72.8091H91.9699L92.022 72.3571H92.0046C91.7443 72.6874 91.4493 72.8439 91.1195 72.8439ZM91.3451 72.3571C91.5013 72.3397 91.6575 72.2701 91.7617 72.1658C91.9005 72.0093 92.022 71.8355 92.0914 71.6268C92.1782 71.4008 92.2303 71.14 92.2303 70.8966C92.2303 70.7575 92.1955 70.6358 92.1088 70.5314C92.022 70.4445 91.9179 70.3923 91.7964 70.3923C91.6402 70.3923 91.484 70.4619 91.3799 70.5836C91.241 70.7401 91.1369 70.9139 91.0675 71.1226C90.998 71.3486 90.946 71.5747 90.946 71.8181C90.9286 71.9572 90.9807 72.0963 91.0501 72.2006C91.1195 72.3223 91.2237 72.3745 91.3451 72.3571Z" fill="#2B2B2B"/>
<path d="M97.489 70.0793C97.5064 70.4619 97.3502 70.8096 97.0552 71.053C96.7081 71.2965 96.2742 71.4182 95.8403 71.4008H95.5626L95.2676 72.7918H94.6602L95.4411 69.0535H96.2915C96.6039 69.0361 96.9163 69.1231 97.1767 69.3143C97.4023 69.523 97.5064 69.8012 97.489 70.0793ZM95.6841 70.8792H95.9271C96.1701 70.8965 96.4304 70.827 96.6213 70.6705C96.7948 70.5314 96.8816 70.3228 96.8643 70.0967C96.8816 69.9403 96.8296 69.8012 96.7081 69.6968C96.5692 69.6099 96.413 69.5577 96.2568 69.5751H95.9618L95.6841 70.8792Z" fill="#2B2B2B"/>
<path d="M98.5131 72.8439C98.2875 72.8613 98.0792 72.757 97.9404 72.5831C97.7842 72.3745 97.7147 72.1137 97.7321 71.8529C97.7321 71.5225 97.7842 71.1921 97.9056 70.8792C98.0098 70.601 98.166 70.3576 98.3916 70.1663C98.5825 69.9924 98.8255 69.9055 99.0684 69.9055C99.2246 69.9055 99.3635 69.9403 99.5023 70.0272C99.6238 70.1141 99.7279 70.2358 99.78 70.3749H99.8147L99.9709 69.975H100.439L99.8321 72.8091H99.3635L99.4155 72.3571H99.3982C99.1379 72.6874 98.8428 72.8439 98.5131 72.8439ZM98.7387 72.3571C98.8949 72.3397 99.0511 72.2701 99.1552 72.1658C99.2941 72.0093 99.4155 71.8355 99.485 71.6268C99.5717 71.4008 99.6238 71.14 99.6238 70.8966C99.6238 70.7575 99.5891 70.6358 99.5023 70.5314C99.4155 70.4445 99.3114 70.3923 99.1899 70.3923C99.0337 70.3923 98.8775 70.4619 98.7908 70.5836C98.6519 70.7401 98.5478 70.9139 98.4784 71.1226C98.4089 71.3486 98.3569 71.5747 98.3569 71.8181C98.3395 71.9572 98.3916 72.0963 98.461 72.2006C98.5131 72.3223 98.6172 72.3745 98.7387 72.3571Z" fill="#2B2B2B"/>
<path d="M102.557 69.9229C102.644 69.9229 102.748 69.9403 102.834 69.9577L102.696 70.514C102.609 70.4967 102.522 70.4793 102.435 70.4793C102.21 70.4793 102.001 70.5836 101.863 70.7575C101.689 70.9835 101.568 71.2443 101.515 71.5225L101.238 72.8092H100.648L101.255 69.975H101.724L101.672 70.4967H101.689C101.793 70.3228 101.949 70.1663 102.123 70.062C102.244 69.9577 102.401 69.9229 102.557 69.9229Z" fill="#2B2B2B"/>
<path d="M103.685 72.8439C103.459 72.8613 103.251 72.757 103.112 72.5831C102.956 72.3745 102.886 72.1137 102.904 71.8529C102.904 71.5225 102.956 71.1921 103.077 70.8792C103.181 70.601 103.338 70.3576 103.563 70.1663C103.754 69.9924 103.997 69.9055 104.257 69.9055C104.414 69.9055 104.552 69.9403 104.691 70.0272C104.813 70.1141 104.917 70.2358 104.969 70.3749H105.004L105.16 69.975H105.628L105.021 72.8091H104.552L104.605 72.3571H104.587C104.292 72.6874 103.997 72.8439 103.685 72.8439ZM103.893 72.3571C104.049 72.3397 104.205 72.2701 104.309 72.1658C104.448 72.0093 104.57 71.8355 104.639 71.6268C104.726 71.4008 104.778 71.14 104.778 70.8966C104.778 70.7575 104.743 70.6358 104.657 70.5314C104.57 70.4445 104.466 70.3923 104.344 70.3923C104.188 70.3923 104.032 70.4619 103.928 70.5836C103.789 70.7401 103.685 70.9139 103.615 71.1226C103.546 71.3486 103.494 71.5747 103.494 71.8181C103.476 71.9572 103.511 72.0963 103.598 72.2006C103.667 72.3049 103.789 72.3745 103.893 72.3571Z" fill="#2B2B2B"/>
<path d="M109.204 72.7918H107.225L108.006 69.0535H109.985L109.881 69.5751H108.51L108.301 70.5836H109.586L109.482 71.1052H108.197L107.954 72.2702H109.343L109.204 72.7918Z" fill="#2B2B2B"/>
<path d="M111.859 69.9229C112.241 69.9229 112.449 70.1315 112.501 70.5314H112.519C112.623 70.3402 112.779 70.1837 112.952 70.0794C113.109 69.975 113.282 69.9229 113.456 69.9229C113.647 69.9055 113.838 69.975 113.976 70.1141C114.098 70.2706 114.167 70.4619 114.15 70.6705C114.15 70.827 114.133 70.9835 114.098 71.14L113.733 72.8092H113.143L113.508 71.0878C113.543 70.9661 113.543 70.8618 113.56 70.7401C113.56 70.514 113.456 70.4097 113.247 70.4097C113.039 70.4271 112.831 70.5488 112.727 70.7227C112.553 70.9661 112.432 71.2617 112.38 71.5573L112.119 72.7918H111.512L111.876 71.0704C111.894 70.9661 111.911 70.8618 111.911 70.7401C111.911 70.514 111.807 70.3923 111.616 70.3923C111.408 70.4097 111.2 70.5314 111.095 70.7227C110.922 70.9835 110.8 71.2791 110.748 71.5921L110.505 72.7918H109.898L110.505 69.9577H110.974L110.922 70.4793H110.939C111.217 70.0968 111.512 69.9229 111.859 69.9229Z" fill="#2B2B2B"/>
<path d="M115.92 72.8439C115.625 72.8439 115.347 72.67 115.226 72.3919H115.209C115.191 72.5483 115.174 72.7048 115.139 72.8613L114.896 74.061H114.306L115.174 69.975H115.643L115.59 70.4619H115.608C115.868 70.1141 116.163 69.9229 116.493 69.9229C116.719 69.9055 116.927 70.0098 117.066 70.1837C117.222 70.3923 117.291 70.6531 117.274 70.9139C117.274 71.2443 117.222 71.5747 117.1 71.8876C116.996 72.1658 116.84 72.4092 116.614 72.6005C116.423 72.757 116.163 72.8439 115.92 72.8439ZM116.267 70.4097C116.111 70.4271 115.955 70.4967 115.851 70.6184C115.712 70.7748 115.59 70.9487 115.521 71.1574C115.434 71.3834 115.4 71.6094 115.4 71.8528C115.382 71.9919 115.434 72.131 115.521 72.2354C115.608 72.3223 115.729 72.3745 115.851 72.3745C116.007 72.3745 116.163 72.2875 116.25 72.1658C116.389 72.0093 116.476 71.8181 116.545 71.6268C116.614 71.4008 116.649 71.1747 116.649 70.9313C116.649 70.5836 116.528 70.4097 116.267 70.4097Z" fill="#2B2B2B"/>
<path d="M119.548 69.9229C119.634 69.9229 119.738 69.9403 119.825 69.9577L119.686 70.514C119.6 70.4967 119.513 70.4793 119.426 70.4793C119.2 70.4793 118.992 70.5836 118.853 70.7575C118.68 70.9835 118.558 71.2443 118.506 71.5225L118.229 72.8092H117.621L118.229 69.975H118.697L118.645 70.4967H118.662C118.767 70.3228 118.923 70.1663 119.096 70.062C119.235 69.9577 119.391 69.9229 119.548 69.9229Z" fill="#2B2B2B"/>
<path d="M120.953 72.8439C120.658 72.8613 120.38 72.757 120.172 72.5657C119.981 72.3571 119.877 72.0615 119.894 71.7659C119.894 71.4356 119.964 71.1226 120.085 70.827C120.207 70.5662 120.38 70.3228 120.623 70.1489C120.849 69.9924 121.109 69.9055 121.387 69.9055C121.613 69.8881 121.838 69.9577 122.029 70.0967C122.185 70.2185 122.272 70.4271 122.255 70.6184C122.255 70.9139 122.099 71.2095 121.821 71.3486C121.439 71.5399 121.023 71.6268 120.606 71.6094H120.502V71.6964V71.7659C120.485 71.9224 120.537 72.0789 120.641 72.218C120.745 72.3397 120.918 72.3919 121.075 72.3745C121.196 72.3745 121.318 72.3571 121.439 72.3223C121.595 72.2701 121.734 72.218 121.873 72.1484V72.6353C121.734 72.7048 121.578 72.757 121.422 72.7918C121.266 72.8265 121.109 72.8439 120.953 72.8439ZM121.335 70.3749C121.161 70.3749 120.988 70.4619 120.866 70.601C120.71 70.7575 120.606 70.9661 120.554 71.1748H120.623C120.884 71.1921 121.144 71.14 121.37 71.0357C121.526 70.9661 121.63 70.827 121.647 70.6531C121.647 70.5836 121.63 70.4967 121.561 70.4445C121.508 70.3923 121.422 70.3749 121.335 70.3749Z" fill="#2B2B2B"/>
<path d="M124.39 71.9224C124.407 72.1832 124.285 72.444 124.095 72.6005C123.852 72.7744 123.557 72.8613 123.261 72.8439C122.984 72.8439 122.689 72.7918 122.446 72.6701V72.1484C122.689 72.2875 122.966 72.3745 123.244 72.3745C123.383 72.3745 123.522 72.3397 123.643 72.2701C123.747 72.218 123.8 72.0963 123.8 71.9919C123.8 71.905 123.765 71.8355 123.713 71.7659C123.609 71.6616 123.487 71.5747 123.348 71.5225C123.175 71.4356 123.019 71.3138 122.897 71.1747C122.81 71.053 122.758 70.8966 122.758 70.7575C122.741 70.514 122.845 70.288 123.036 70.1315C123.244 69.975 123.504 69.8881 123.782 69.9055C124.095 69.9055 124.39 69.975 124.667 70.1141L124.476 70.5662C124.268 70.4445 124.042 70.3749 123.8 70.3749C123.695 70.3749 123.591 70.3923 123.504 70.4619C123.435 70.514 123.383 70.601 123.383 70.7053C123.383 70.7748 123.418 70.8618 123.47 70.9139C123.574 71.0009 123.695 71.0878 123.817 71.14C123.956 71.2095 124.077 71.2965 124.199 71.4008C124.268 71.4703 124.338 71.5399 124.372 71.6442C124.372 71.7311 124.39 71.8355 124.39 71.9224Z" fill="#2B2B2B"/>
<path d="M125.761 72.8439C125.535 72.8613 125.327 72.757 125.188 72.5831C125.032 72.3745 124.962 72.1137 124.98 71.8529C124.98 71.5225 125.032 71.1921 125.153 70.8792C125.257 70.601 125.414 70.3576 125.639 70.1663C125.83 69.9924 126.073 69.9055 126.316 69.9055C126.472 69.9055 126.611 69.9403 126.75 70.0272C126.871 70.1141 126.975 70.2358 127.028 70.3749H127.062L127.218 69.975H127.687L127.08 72.8091H126.611L126.663 72.3571H126.646C126.385 72.6874 126.09 72.8439 125.761 72.8439ZM125.986 72.3571C126.142 72.3397 126.299 72.2701 126.403 72.1658C126.542 72.0093 126.663 71.8355 126.733 71.6268C126.819 71.4008 126.871 71.14 126.871 70.8966C126.871 70.7575 126.837 70.6358 126.75 70.5314C126.663 70.4445 126.559 70.3923 126.437 70.3923C126.281 70.3923 126.125 70.4619 126.038 70.5836C125.899 70.7401 125.795 70.9139 125.726 71.1226C125.657 71.3486 125.604 71.5747 125.604 71.8181C125.587 71.9572 125.639 72.0963 125.709 72.2006C125.761 72.3223 125.865 72.3745 125.986 72.3571Z" fill="#2B2B2B"/>
<path d="M129.77 71.9224C129.787 72.1832 129.666 72.444 129.475 72.6005C129.232 72.7744 128.937 72.8613 128.642 72.8439C128.364 72.8439 128.069 72.7918 127.826 72.6701V72.1484C128.069 72.2875 128.347 72.3745 128.624 72.3745C128.763 72.3745 128.902 72.3397 129.023 72.2701C129.128 72.218 129.18 72.0963 129.18 71.9919C129.18 71.905 129.145 71.8355 129.093 71.7659C128.989 71.6616 128.867 71.5747 128.728 71.5225C128.555 71.4356 128.399 71.3138 128.277 71.1747C128.19 71.053 128.138 70.8966 128.138 70.7575C128.121 70.514 128.225 70.288 128.416 70.1315C128.624 69.975 128.885 69.8881 129.145 69.9055C129.457 69.9055 129.752 69.975 130.03 70.1141L129.839 70.5662C129.631 70.4445 129.405 70.3749 129.162 70.3749C129.058 70.3749 128.954 70.3923 128.867 70.4619C128.798 70.514 128.746 70.601 128.746 70.7053C128.746 70.7748 128.78 70.8618 128.833 70.9139C128.937 71.0009 129.058 71.0878 129.18 71.14C129.318 71.2095 129.44 71.2965 129.561 71.4008C129.631 71.4703 129.683 71.5399 129.735 71.6442C129.752 71.7311 129.77 71.8355 129.77 71.9224Z" fill="#2B2B2B"/>
<path d="M67.1175 10.389C65.8853 9.41536 64.0803 8.89374 61.5465 8.89374C60.401 8.87635 59.2382 8.98068 58.1101 9.20671C57.2945 9.43274 56.5135 9.79788 55.8366 10.3021C55.2639 10.7368 54.8127 11.328 54.535 11.9887C54.2746 12.632 54.1358 13.3101 54.1532 14.0056V14.7185C54.0837 14.9097 54.2226 15.0488 54.4135 15.0488H57.5201C57.6589 15.0314 57.763 14.9271 57.7804 14.788C57.8325 14.0925 58.1101 13.4318 58.5614 12.9102C59.082 12.319 60.0539 12.0061 61.477 12.0061C62.0845 11.9887 62.7093 12.0756 63.282 12.2669C63.6812 12.4233 64.063 12.632 64.3754 12.9102C64.844 13.3796 65.1216 14.0056 65.1563 14.6663V15.5704C65.1563 15.8834 65.0869 16.1964 64.9654 16.4746C64.8613 16.718 64.7051 16.944 64.5142 17.1179C64.3754 17.3092 64.2018 17.4483 63.9935 17.57C63.8547 17.6743 63.6985 17.7612 63.5423 17.8308C63.4729 17.9003 63.2126 17.9699 62.6919 18.1611C62.1713 18.3524 61.72 18.5436 61.0779 18.7523C60.4357 18.9609 59.7762 19.1348 59.1341 19.3956C58.492 19.6564 57.9019 19.7781 57.3812 19.9868C56.3573 20.3171 55.5069 21.0126 54.9862 21.9342C54.4482 22.8209 54.1532 23.8294 54.1532 24.8552V26.8721C54.1879 27.4459 54.3094 28.0197 54.4829 28.5587C54.6912 29.2194 55.073 29.7932 55.5763 30.2452C56.2011 30.8538 56.9473 31.2885 57.7804 31.5493C58.9779 31.9144 60.2275 32.0883 61.477 32.0709C62.7266 32.1231 63.9762 31.9492 65.1737 31.5493C66.0068 31.2885 66.7877 30.8364 67.4299 30.2452C67.9505 29.7932 68.3323 29.2194 68.5406 28.5587C68.7489 28.0197 68.853 27.4459 68.8704 26.8721V14.1621C68.8704 12.6842 68.2282 11.3106 67.1175 10.389ZM64.3927 27.9675C63.8721 28.4891 62.8308 28.8021 61.477 28.8021C60.1233 28.8021 59.1515 28.5413 58.6308 28.0197C58.0581 27.3242 57.7804 26.4548 57.8498 25.5507C57.8498 25.0986 57.9192 24.577 58.1796 24.1945C58.3878 23.8641 58.6134 23.5512 58.8911 23.2904C59.1515 23.0991 59.5333 22.9078 59.863 22.6992C60.2448 22.5079 60.8349 22.3688 61.2861 22.1776C61.7374 21.9689 62.2233 21.7951 62.7093 21.656C63.2299 21.5342 63.6812 21.3256 64.1324 21.2039C64.358 21.1343 64.5836 21.03 64.7745 20.8735C65.0175 20.7344 65.1737 20.491 65.2258 20.2302L65.1563 25.5507C65.2258 26.4201 64.9481 27.2894 64.3927 27.9675Z" fill="#2B2B2B"/>
<path d="M50.5431 8.89376H52.6084C52.7472 8.91114 52.8514 9.01547 52.8687 9.15456V9.20673L52.1572 11.9365C52.1572 12.0756 52.0357 12.1278 51.8968 12.1278H50.4737C49.8316 12.1104 49.1894 12.2147 48.5994 12.4581C48.1828 12.6146 47.801 12.858 47.506 13.171C47.2804 13.4144 47.0895 13.6926 46.9853 14.0056C46.9159 14.2838 46.8638 14.562 46.8465 14.8402V31.7058C46.8638 31.8797 46.725 32.0188 46.5688 32.0361C46.5514 32.0361 46.5514 32.0361 46.5341 32.0361H43.4275C43.2713 32.0188 43.1498 31.8797 43.1672 31.7058V14.1447C43.1672 13.6926 43.2366 13.2232 43.3581 12.7885C43.4796 12.1278 43.8093 11.5192 44.2606 11.0324C44.8853 10.3891 45.6316 9.86744 46.4647 9.53708C47.7489 9.03285 49.1547 8.80682 50.5431 8.89376Z" fill="#2B2B2B"/>
<path d="M39.9914 26.0028V26.7852C39.9914 27.272 39.922 27.7415 39.8005 28.2109C39.6617 28.8717 39.3493 29.4628 38.898 29.9671C38.2732 30.6104 37.527 31.132 36.6939 31.4624C35.3923 31.9318 34.0039 32.1578 32.6155 32.1057C31.227 32.1405 29.8386 31.9318 28.537 31.4624C27.7039 31.1494 26.9403 30.6278 26.3329 29.9671C25.8817 29.4802 25.5693 28.8717 25.4304 28.2109C25.2916 27.7589 25.2916 27.3068 25.2395 26.8547V9.15455C25.2222 8.98068 25.361 8.84158 25.5172 8.82419C25.5345 8.82419 25.5345 8.82419 25.5519 8.82419H28.5891C28.7626 8.80681 28.9014 8.9459 28.9188 9.11978C28.9188 9.13716 28.9188 9.13716 28.9188 9.15455V25.6376C28.9362 26.0549 28.9709 26.4548 29.0576 26.8721C29.1618 27.2025 29.3527 27.5155 29.5783 27.7763C29.8733 28.1066 30.2552 28.35 30.6717 28.4891C31.2965 28.6978 31.956 28.8021 32.6155 28.8195C33.2923 28.8369 33.9865 28.7326 34.6287 28.4891C35.0452 28.3674 35.427 28.1414 35.722 27.8458C35.9824 27.6198 36.1559 27.3242 36.2427 26.9938C36.3815 26.5765 36.4336 26.1419 36.4336 25.6898V9.15455C36.4162 8.99807 36.5377 8.84158 36.6939 8.82419H39.8005C39.9741 8.80681 40.1129 8.9459 40.1302 9.11978C40.1302 9.13716 40.1302 9.13716 40.1302 9.15455L39.9914 26.0028Z" fill="#2B2B2B"/>
<path d="M18.818 0.513101H21.8552C22.0287 0.495714 22.1676 0.634811 22.1849 0.791296C22.1849 0.808683 22.1849 0.826071 22.1849 0.826071V31.7753C22.2023 31.9492 22.0634 32.0883 21.8899 32.1057C21.8725 32.1057 21.8725 32.1057 21.8552 32.1057H18.818C18.6445 32.1231 18.5056 31.984 18.4883 31.8101C18.4883 31.7927 18.4883 31.7927 18.4883 31.7753V0.826071C18.5577 0.634811 18.6792 0.513101 18.818 0.513101Z" fill="#2B2B2B"/>
<path d="M0.751221 40.1733C0.768576 39.8604 1.01155 39.5996 1.3413 39.5822H5.03795C5.35034 39.5996 5.61067 39.843 5.62803 40.1733V60.6555C5.61067 60.9685 5.3677 61.2293 5.03795 61.2467H1.3413C1.0289 61.2293 0.768576 60.9858 0.751221 60.6555C0.751221 60.6555 0.751221 40.1733 0.751221 40.1733Z" fill="#2B2B2B"/>
<path d="M10.9041 39.843C10.9214 39.53 11.1817 39.2866 11.4941 39.2866H12.2578L24.5799 51.1621H24.6146V40.1733C24.6146 39.843 24.875 39.5822 25.2047 39.5822H28.9014C29.2138 39.5996 29.4741 39.843 29.4914 40.1733V60.9858C29.4741 61.2988 29.2138 61.5422 28.9014 61.5422H28.4154C28.2766 61.5248 28.1377 61.4727 28.0163 61.3857L15.8156 49.1104H15.7809V60.6555C15.7809 60.9858 15.5205 61.2466 15.1908 61.2466H11.5288C11.2164 61.2293 10.9561 60.9858 10.9388 60.6555L10.9041 39.843Z" fill="#2B2B2B"/>
<path d="M44.3822 39.2866C47.4715 39.2866 49.7623 40.2429 51.845 42.1555C52.0879 42.3467 52.1226 42.7119 51.9317 42.9727C51.9144 42.9901 51.897 43.0075 51.8797 43.0248L49.4673 45.546C49.259 45.7546 48.9119 45.7546 48.7037 45.546C47.5582 44.5375 46.0657 43.9638 44.5384 43.9638C41.05 43.9638 38.4815 46.8674 38.4815 50.3275C38.4815 53.7701 41.0848 56.6043 44.5558 56.6043C46.0657 56.6043 47.5235 56.0826 48.6863 55.1263C48.9293 54.9351 49.259 54.9525 49.4847 55.1611L51.897 57.717C52.1053 57.9605 52.0879 58.3256 51.8623 58.5516C49.8491 60.499 47.1591 61.577 44.3649 61.5596C38.2212 61.5596 33.2576 56.5695 33.2576 50.4318C33.2576 44.2941 38.2385 39.2866 44.3822 39.2866Z" fill="#2B2B2B"/>
<path d="M55.5762 40.1733C55.5762 39.843 55.8365 39.5822 56.1663 39.5822H59.8455C60.1579 39.5996 60.4183 39.843 60.4356 40.1733V56.6912H67.7769C68.1066 56.6912 68.3669 56.952 68.3669 57.2824V60.6555C68.3669 60.9858 68.1066 61.2467 67.7769 61.2467H56.1663C55.8365 61.2467 55.5762 60.9858 55.5762 60.6555V40.1733V40.1733Z" fill="#2B2B2B"/>
<path d="M70.7966 40.1733C70.814 39.8604 71.057 39.5996 71.3867 39.5822H75.1875C75.5172 39.5822 75.7776 39.843 75.7776 40.1733V52.6921C75.7776 54.8655 77.3742 56.5869 79.5784 56.5869C81.7998 56.5869 83.4312 54.8482 83.4312 52.6921V40.1733C83.4312 39.843 83.6915 39.5822 84.0213 39.5822H87.8221C88.1344 39.5996 88.3948 39.843 88.4121 40.1733V52.953C88.4121 57.6475 84.4552 61.5596 79.5784 61.5596C74.7363 61.5596 70.814 57.6649 70.814 52.953L70.7966 40.1733Z" fill="#2B2B2B"/>
<path d="M93.3757 40.1733C93.3757 39.8604 93.6187 39.5996 93.9311 39.5822H101.463C107.416 39.5822 112.293 44.4332 112.293 50.3796C112.293 56.3782 107.433 61.2293 101.463 61.2293H93.9311C93.6187 61.2119 93.3757 60.9511 93.3757 60.6381V40.1733ZM101.151 56.6738C104.639 56.6738 107.173 53.9266 107.173 50.397C107.173 46.9022 104.639 44.155 101.151 44.155H98.1831V56.6738H101.151Z" fill="#2B2B2B"/>
<path d="M116.076 40.1733C116.076 39.843 116.337 39.5822 116.666 39.5822H129.44C129.77 39.5822 130.03 39.843 130.03 40.1733V43.5465C130.03 43.8768 129.77 44.1376 129.44 44.1376H120.884V47.9802H127.93C128.242 47.9976 128.503 48.241 128.52 48.5714V51.9445C128.52 52.2748 128.26 52.5357 127.93 52.5357H120.884V56.7086H129.44C129.77 56.7086 130.03 56.9694 130.03 57.2998V60.6729C130.03 61.0032 129.77 61.264 129.44 61.264H116.666C116.337 61.264 116.076 61.0032 116.076 60.6729V40.1733Z" fill="#2B2B2B"/>
<path d="M13.6982 10.389C12.466 9.41536 10.661 8.89374 8.12719 8.89374C6.98175 8.87635 5.81895 8.98068 4.69087 9.20671C3.85782 9.39797 3.09419 9.78049 2.43469 10.3021C1.86197 10.7368 1.41074 11.3279 1.13306 11.9887C0.872728 12.632 0.751242 13.3101 0.751242 14.0056V14.788C0.733887 14.9619 0.872728 15.101 1.02892 15.1184C1.04628 15.1184 1.04628 15.1184 1.06364 15.1184H4.10079C4.23963 15.101 4.34376 14.9967 4.36112 14.8576C4.41318 14.1621 4.69087 13.5014 5.1421 12.9797C5.66276 12.3886 6.63465 12.0756 8.05777 12.0756C8.6652 12.0061 9.28999 12.0756 9.88007 12.2669C10.2792 12.4233 10.661 12.632 10.9734 12.9102C11.442 13.3623 11.7197 14.0056 11.7544 14.6663V15.5704C11.7544 15.8834 11.685 16.1964 11.5635 16.4746C11.4594 16.718 11.3032 16.944 11.1123 17.1179C10.9734 17.3092 10.7999 17.4483 10.5916 17.57C10.4528 17.6743 10.2966 17.7612 10.1404 17.8308C10.071 17.9003 9.81064 17.9699 9.30734 18.1611C8.80404 18.3524 8.33545 18.5436 7.69331 18.7523C7.05117 18.9609 6.40903 19.1348 5.74953 19.3956C5.09004 19.6564 4.49996 19.7781 3.9793 19.9868C2.9727 20.3171 2.10495 21.0126 1.58429 21.9342C1.04628 22.8209 0.751242 23.8294 0.733887 24.8552V26.8547C0.768597 27.4285 0.890084 28.0023 1.06364 28.5413C1.2719 29.202 1.65371 29.7758 2.15701 30.2279C2.7818 30.8364 3.52807 31.2711 4.36112 31.5319C5.55863 31.897 6.8082 32.0709 8.05777 32.0535C9.30734 32.1057 10.5569 31.9318 11.7544 31.5319C12.5875 31.2711 13.3685 30.819 14.028 30.2279C14.5486 29.7758 14.9304 29.202 15.1213 28.5413C15.3296 28.0023 15.4337 27.4285 15.4511 26.8547V14.1447C15.4511 12.6842 14.8089 11.3106 13.6982 10.389ZM11.0429 27.9675C10.5222 28.4891 9.55032 28.8021 8.12719 28.8021C6.70407 28.8021 5.73218 28.5413 5.21152 28.0197C4.6388 27.3242 4.36112 26.4548 4.43054 25.5507C4.43054 25.0812 4.55203 24.6118 4.74293 24.1945C4.9512 23.8641 5.17681 23.5686 5.45449 23.2904C5.71482 23.0991 6.09664 22.9078 6.42638 22.6992C6.8082 22.5079 7.39828 22.3688 7.84951 22.1776C8.30074 21.9689 8.78669 21.7951 9.27263 21.656C9.79329 21.5342 10.2445 21.3256 10.6958 21.2039C10.9214 21.1343 11.147 21.03 11.3379 20.8735C11.5809 20.7344 11.7371 20.491 11.7891 20.2302V25.5507C11.9106 26.4374 11.6156 27.3068 11.0429 27.9675Z" fill="#2B2B2B"/>
</svg>
